<svg xmlns="http://www.w3.org/2000/svg" viewBox="0 0 400 400">
  <defs>
    <linearGradient id="bg" x1="0" x2="1" y1="0" y2="1"><stop stop-color="#bf7a35"/><stop offset=".45" stop-color="#d8d72d"/><stop offset="1" stop-color="#33412b"/></linearGradient>
    <filter id="blur"><feGaussianBlur stdDeviation="14"/></filter>
  </defs>
  <rect width="400" height="400" fill="url(#bg)"/>
  <g filter="url(#blur)" opacity=".6"><circle cx="95" cy="80" r="60" fill="#f3c43f"/><circle cx="306" cy="104" r="70" fill="#798b19"/><circle cx="330" cy="320" r="90" fill="#2b2117"/></g>
  <path d="M70 286 C145 206 215 128 327 47" stroke="#d9c2a5" stroke-width="18" fill="none" stroke-linecap="round"/>
  <path d="M146 214 C165 142 248 126 292 172 C248 178 211 199 176 247 C154 243 144 232 146 214Z" fill="#007d91"/>
  <path d="M176 245 C196 197 246 177 292 172 C272 233 218 270 176 245Z" fill="#dc7b25"/>
  <path d="M284 166 L374 176 L286 185Z" fill="#e5d5b8"/>
  <circle cx="258" cy="154" r="7" fill="#111"/>
  <path d="M184 235 L158 290" stroke="#26321d" stroke-width="9" stroke-linecap="round"/>
</svg>
